/* XPM */
static char *result[] = {
/* columns rows colors chars-per-pixel */
"64 64 209 2 ",
"   c black",
".  c #00D100",
"X  c #FAFFFF",
"o  c #FBFCFC",
"O  c #FAFBFB",
"+  c #00CF00",
"@  c #00BC00",
"#  c #FFCD81",
"$  c white",
"%  c #FFD082",
"&  c #00C300",
"*  c #45332D",
"=  c #00A100",
"-  c #190000",
";  c #00D400",
":  c #FFD183",
">  c #008800",
",  c #00B700",
"<  c #FCFFFF",
"1  c #00C600",
"2  c #007F00",
"3  c #210002",
"4  c #00B100",
"5  c #009800",
"6  c #00B900",
"7  c #009200",
"8  c #00C100",
"9  c #00CD00",
"0  c #FFD585",
"q  c #00BE00",
"w  c #008200",
"e  c #00C900",
"r  c #008E00",
"t  c #006900",
"y  c #FBFDFF",
"u  c #00DC00",
"i  c #FFD787",
"p  c #005F00",
"a  c #00CB00",
"s  c #00A700",
"d  c #00A900",
"f  c #009500",
"g  c #00D700",
"h  c #007100",
"j  c #007B00",
"k  c #00B300",
"l  c #FBFCFE",
"z  c #00DE00",
"x  c #00AB00",
"c  c #00B500",
"v  c #008B00",
"b  c #FF8B66",
"n  c #FFE08A",
"m  c #00EB00",
"M  c #009E00",
"N  c #00DA00",
"B  c #FFCC7E",
"V  c #00F000",
"C  c #FFE58D",
"Z  c #FFFD9E",
"A  c #FFDB87",
"S  c DarkGreen",
"D  c #009A00",
"F  c #FF9068",
"G  c #007400",
"H  c #493632",
"J  c #007800",
"K  c #008500",
"L  c green",
"P  c #523538",
"I  c #004F00",
"U  c #FFD583",
"Y  c #004500",
"T  c #006D00",
"R  c #FF8864",
"E  c #00E200",
"W  c #003800",
"Q  c #FF9E76",
"!  c #00AE00",
"~  c #004000",
"^  c #FFF090",
"/  c #060000",
"(  c #FEFFFF",
")  c #0C0000",
"_  c #005200",
"`  c #FFF098",
"'  c #007600",
"]  c #523C39",
"[  c #FF7B5F",
"{  c #FEFEFE",
"}  c #00A400",
"|  c #FF936C",
" . c #00E500",
".. c #FFC975",
"X. c #FFA57B",
"o. c #005800",
"O. c #FFD383",
"+. c #392C29",
"@. c #FFFFA4",
"#. c #4F3B36",
"$. c #FFDD89",
"%. c #FF765D",
"&. c #FFCC7B",
"*. c #FFEB93",
"=. c #FFAC7F",
"-. c #FF986F",
";. c #FF6255",
":. c #DE4931",
">. c #FF8161",
",. c #004A00",
"<. c #120000",
"1. c #FFFFAE",
"2. c #002E00",
"3. c #FFC25F",
"4. c #FF8769",
"5. c #FF9476",
"6. c #FFBC52",
"7. c #493D36",
"8. c #020000",
"9. c #060713",
"0. c #00E800",
"q. c #FFC364",
"w. c #FDC37C",
"e. c #00FB00",
"r. c #FF695B",
"t. c #FE3F3E",
"y. c #FFF799",
"u. c #6E2A59",
"i. c #FFE583",
"p. c #FD5243",
"a. c #291E24",
"s. c #FF6C4F",
"d. c #FF6D3E",
"f. c #5B343F",
"g. c #00F700",
"h. c #FFC569",
"j. c #FF7F57",
"k. c #2F2C2F",
"l. c #373332",
"z. c #171D21",
"x. c #FF8758",
"c. c #FFB885",
"v. c #002000",
"b. c #FFD77F",
"n. c #FFA285",
"m. c #FFCB65",
"M. c #FF6139",
"N. c #FFD27D",
"B. c #D81B0B",
"V. c #433834",
"C. c #FF5D4D",
"Z. c #FF997E",
"A. c #F12937",
"S. c #AC1105",
"D. c #FF7262",
"F. c #001700",
"G. c #522D3A",
"H. c #FFB188",
"J. c #EC4C3F",
"K. c #3F3C36",
"L. c #DB1429",
"P. c #FFD46C",
"I. c #1D0D1D",
"U. c #FFE694",
"Y. c #E60C09",
"T. c #FF9D6C",
"R. c #CA432D",
"E. c #FFF7A0",
"W. c #D92A2D",
"Q. c #FFC86C",
"!. c #000800",
"~. c #B4301D",
"^. c #000F00",
"/. c #FFBECD",
"(. c #715852",
"). c #FF7845",
"_. c #E4E2EB",
"`. c #2F0708",
"'. c #362232",
"]. c #6C4550",
"[. c #FFCA92",
"{. c #EC3C39",
"}. c #FF2E45",
"|. c #FFC28D",
" X c #F05A39",
".X c #FFA0CC",
"XX c #BFC8DB",
"oX c #E5B162",
"OX c #E2B572",
"+X c #FF5A21",
"@X c #F42417",
"#X c #FF807A",
"$X c #FFEBFF",
"%X c #62094D",
"&X c #FFFAA4",
"*X c #FFB339",
"=X c #E4867C",
"-X c #9C7B4B",
";X c #FF551F",
":X c #CB684D",
">X c #F5BA60",
",X c #E26F54",
"<X c #FFD5F1",
"1X c #8A8D90",
"2X c #85000E",
"3X c #C4AACB",
"4X c #8C1F25",
"5X c #C42324",
"6X c #00FFFC",
/* pixels */
"Y z e 1 e . . v.S o.S _ N N g ; + 1 I J D f j v D 2 J G e @ c a 1 + 9 9 9 ; . ! 8 q S W = w ~ V 2 1 , w V r o.h W j J x 1 6 k D ",
"p u e a + g p > h I w 0.u g g g N  .r w s } M s } = M 2 v 1 6 ; s f s 4 8 8 s ~ 2 _   o._ Y V ; j . h p ~ I T r ' 2._ F.2 I h S ",
"Y E u m e.!   > h x V z N g g ; +  .I = = 5 5 } ! = } 5 s 5 4 q T 6 e . d 5 J ,.z + } f ; 1 , r T g ' G ,.J p @ s j I ~ v ~ 5 r ",
"2 1 L 3 ) s.K o.D t k N z N g g g m J ! 5 ! 7 ! 4 k @ r v.} K j & 8 ; 0.M 5 > , = L 0.c ~ t 2 ' t 2 5 @ 1 z ! S e M S r w D D 9 ",
"M ~ 3 f.H '.t.t.}.J 2 7 e 0.0. .u 7 s k r D r 5 5 7 r } W t t g E 9 V 3 - - - - - 3 3 g.5 v.r K I @ ; E  .m c 8 1 8 I T o.Y F.~ ",
"h t - ] * k. X Xp.K K G G u > > G 7 d 4 7 = 7 5 } D K = S 2 @ 1 `.3 - f.] P P P P f.) L . p e r ! N g N N  ., p & & r w @ r w v ",
"v e.- P H V.l.k.l./ - 3   G p 7 t , w I D ! = 2 k } e @ 5 v.p 7 - <.) #.H H H H H H   t..Xs V 5 & z a + +  .+ S 1 8 6 j 1 & 8 p ",
"! g.- P 7.      K.#.P f.<.3 >  .@ s ,.2 , q @ J @ 4 g g k 7 S <.] #.#.H V.V.K.  K.7.k.:./.x m G . N N z +  .t 2.8 6 8 v & & a t ",
"@ m - P 7.  C.p.  K.#.#.] G.) ) %XI   3X          e.V g. .c   k.+.* H K.      [     k.:./.V I 6 1 ; N E j = r v 7 j K p T e e 2 ",
"8 V - P 7.  p.J.p.  8.] #.* a.I.9.    4X5.5.5.5.Z.          H.=.z.l.7.  D.r.r.D.    k.:..Xw K 8 k . u  .K 5 k 1 e 6 e f > t + K ",
"& V - P 7.  J.:.J.      8.  1.Z *.5.5.w.*.C C C *.` @.5.Q Q -.Q c.      r.C.;.D.    l.:..X} h e N e . 8 j f 9 e g a ; . k h N G ",
"s 9 - ] 7.  J.R.R.:.p.      @.n # %.%.X.i : : : O.i n %.>.b | Q c.    J.;.C.;.  K.7.  t./.x T @ , . } ' M v q ; N & 9 ; z K 2.~ ",
"K M - ] 7.  D.;.;.;.r.p.    y.i U A A 0 % # # # # % O.A C %.4.    {.p.:.;.C.r.  l.H / = ,.N D D t 7 _ J f p p & ; 1 a + g ; j F.",
"m L - P V.  D.r.;.;.r.  =.| C : % % % % # # # # # # # % O.A C y.5.    :.;.;.;.  I.a./ J 7 9 4 T t ' K j M = K S w ; 9 + ; z = f ",
"V L 3 f.V.l.    D.    X.b %.A % # # # # # # # # # # # # # % O.A *.Z X.  r.;.  @.Z 1.  . ' D Y t ! 4 ! @ 4 1 ; k K q + ; ; z k o.",
"f j L <.  [.      c.Q 4.*.A : # # # # # # # # # # # # # # # # % 0 C 4.=.    @.*.U.@.  , c a E T > r D M ; c c f S 1 @ a 8 1 r v.",
"!.W e.-   |.      X.b %.$.: # # # # # # # # # # # # # # # # # # % A %.|     Z *.` 1.  = M j G l $X$ x 4 k x 8 , 2 M d I _ W _ w ",
"K ,.h -   H.X.X.Q | >.C U # # # # # # # # # # # # # # # # # # # # : A ^ 4.4.y.&X  I.V x , w } %X  @XD 6 6 1 M M j K K I = M } v ",
"@ 6 4 3   H.Q | F b [ n : # # # # # # # # # # # # # # # # # # # # # : 0 n C [   L e.0.s g 6  .u.  $ B.Y.N @ v w h z f 5 @ 6 k c ",
"c @ @ Y p   Q F b R [ n : # # # # # # # # # # # # # # # # # # # # # # # % 0 C &XW.t.D t N 6 ; u.  $ $ $ Y., 5 D > t J } ! x ! 4 ",
"k c r > 1   X.F b R [ C i i 0 % # # # # # # # # # # # % 0 i i 0 % # # # # % i ` ~. Xf Y 9 + 4 u.  $ $ $ =X/.<X! a , T T , k 4 4 ",
"c , ' G >   X.F b b b Z Z Z ` $.% # # # # # # # # # % $.` Z Z ` $.% # # # # O.*.~.{.q T Y @ j u.  $ $ $ $ S.B.p j q 5 S S q c 4 ",
"c D f = J   X.F b F Q         *.O.# % % % % # # # # 0 `         *.O.# # # # : C S.W.L w S J = u.  $ $ < $ $ $ Y.k 5 g 4 r S k c ",
"x K ~ + e   X.F b F X.  8.    ^ 0 : U i i 0 : # # # i Z   8.    ^ O.# # # # % i U.1.  6 , 8 N u.  $ $ o o ( $ $ B.}.s z e T 7 = ",
",.o.} & @   X.F b F =.  /   XXi.O.i | T.T.| B : # # i Z   /   XXi.% # # # # # % i ` 2Xz 9 e  .u.  $ $ O O o $ $ S.A.@ 5 E ' t _ ",
"s   2.p G   Q b R F =.  /   $ i.U n %.>.>.[ % A : % i Z   /   $ i.% # # # # # # : U.L.E . +  .u.  $ $ O O O < $ S.B.0.x  .s ' 4 ",
"z o.Y t.:.Z.4.[ [ >.Q   8.    ^ w.s.[ R b R [ s.b.&.U Z   8.    ^ O.# # # # # # % $.&X  3  .m u.  $ $ O O O o $ $ $   1 1 G , ; ",
"g s ^.:.~.4.*.n n C Z         i.m.P.d.x.-.F ).M.m.q.Q.^         ` 0 # # # # # # # i @.  - m 0.].  $ $ O O O O l $ $   x . w j + ",
". + #X4.%.0 i : : O.n oX>X6._.$ < < $ 1X    $ $ X X < P.oXw.w.OXn % # # # # # # % i @.  - g.N u.  $ $ O O O O O $ $ l   3 6 ; a ",
"+ e A.Z.4.C O.B B &...m.$ ( ( $ y ( $ (.    $ $ X y X $ 3.P.b.b.N.&.&.B B # # % i U.1.  3 7 o.G.  $ $ O O O O O o $ $   <.@ . e ",
"9 .   n.5.*.% ..h.3.6.X < < l o O ( $ ( $ $ $ $ { o l X X X 6.3.3.3.q.h...&.: n ` 1.  ! W     _.$ $ < O O O O o o $ $     8 . a ",
"e u g.    E.b.3.X X X X l O O O { $ $ $ $ $ $ $ $ { O O y X X X X X X X 6.Q.A @.    <.2.T   $ $ $ < X O O l X X y < $ $ $   a 9 ",
"e g z V g.  $ $ $ X y O O O O O ( $   $ $ $     $ ( O O O O l y y y y < $ $ ^   8.t j G L   R q.q.6.X y y X X *XX y ( $ $   ; . ",
"x 5 d , . z B.S.$ ( o O O O O O { $ $       _.$ $ { O O O O O O o ( $ $ $ $ Z   3 p M 3 8.  | w.N.q.X X X X 6.6.X y y $ $   N g ",
"h 6 1 a s D t.B.$ $ $ $ { o O O O $ $ $ $ $ { $ { O O O { $ $ $ $ $ $ $       = w 1 L     =.4.w.O...3.X 6.q.Q.3.X X X $ $   9 & ",
"@ , 8 1 K w h M Y.$ $ $ $ $ $ $ $ { { $ $ $ ( o O O o < $ $ $ $ $ $     V W 7 p = j   H.X.| >.w.O.B ......&.&.h.X X 6.m.^   5 w ",
"q s c s S M m N } @XY.  $ $ $ $ $ $ { O O O O O O o X < $                     E g v   =.-.b >.w.U # B B B # B ..h.h...O.Z   ' . ",
"4 } 5 7 p J V = E ! 7 V           $ $ O O O O O o X X +X).>.b 4.y.y.y.Z E.E.1.        H.X.-.>.B i % # # # # # B B B % A @.  ; ! ",
"2.,.p 2 h t 7 } m  .8 ; N 8 L 8.- $ $ O O O O o X X X M.s.C C n A i i i i i n ` E.@.1.    =.| [ n U % # # # # # # % i *.1.  S G ",
"Y 9 ' r 7 f j > = } 0.4 ' k L ) 3 $ $ O O O O X X ;XM.i.A U : % % # # # # # % 0 i $.y.      Q b %.n 0 : % # # # # : C S.:.  p ' ",
"2.! 1 @ + ; = t } s g 7 S  .p ) 3 $ $ O O O O X X M.s.i : # # # # # # # # # # # # : n E.-X  X.-.R %.C n A O.: % : i ` ~.J.  j 2.",
"h e & 6 > D k f q J M K e v = ) I.$ $ o O O O y X m.N.% # # # # # # # # # # # # # # : A *.@.  :X| R >.[ %.C n $.n *.#XW.}.L _ > ",
"v x e T f @ & 9 f d 4 4 u s v ) 3 ).$ y O O O l X 6.q...B # # # # # # # # # # # # # # % i `   ,XX.-.b R >.[ [ [ [ 4.5XN @ a Y & ",
"w = @ T M 8 1 K S f = 9 K ! v ) 3 x.$ X O O O O X X X 3...B # # # # # # # # # # # # # # % n Z -   =.-.b b R R R b 5.W.a k e v 0.",
"m > D s & s & d r 5 r w I u @ / 3 x.$ X O O O O O y X X h.B % # # # # # # # # # # # # # # 0 *.)     Q F b F F | 5.Z.A.; @ 1 W + ",
"} z w > } j r K 4 T ! S r ; ;   / x.$ X X o O O O O y X m.b.i O.% # # # # B &.&.&.B B # # % A ` 1.  X.-.-.Q Z.n.R.A.V N 8 a 2 7 ",
",.j D v p Y W ,.5 ! c 4 G = ,.p.:.F d.X X X o O O O y X P.s.r.n O.# # % N...q.3.q.h...B # # % A Z   H.n.n.    t.W > ; ; 9 4 J . ",
"S = } 2.~ j I F.o.K M M 4 u L :.R.F j.d.+XX X O O O X X M.j.>.%.A % % A i.$ $ < X X 3...B # # 0 ` R.      E g c I _ 7 d 8 v T = ",
"Y > r 2.r & 5 w r 9 . r M r   n.-.F R j.d.X $ $ { o X X d.>.R [ $.: 0 *.    $ $ X X X Q.B # # O.*.W.G 9 V E M w Y w t > M 2 . 5 ",
"> m ; ^.T & d d ; e a = @ 7   Z.| F R [ d.$ $ $ $ $ $ $ d.x.R [ n O.i Z     $ $ $ $ < P.U : % O.U.L.j S } s K 9 I d S 4 w J @ > ",
"2  .G p > h t s 9 a + = u + A.Z.-.-.F ^ i.s.    $ $ $ $ j.R b R ^ n n Z     $ $ $ $ d.s.T.A 0 i U.L.m v W T x s T t ^.t 4 & D w ",
"v j Y ! q 2 5 @ ; K r t z 9 {.n.F 9.9.Z C ^ @.          T.| | -.  Z y.@.            T.| w.y.*.C ` L.m z v T W r p d W 2 D f W > ",
"& ! 6 r 7 M 2.~ c 2.> ,.g m t.z.z.a.a.9.Z Z - 8.L E >   R.Q Q 9.z.I.9.=.  [.c.c.    c.9.9.9.  OXE.L.0.N 6 c 4 N 4 4 p ' _ G ! @ ",
". + ; e D . o.!.~ 2 d T Y E M.k.+.* +.a.9.1.`.<.f + 4   :.=.=.z.+.+.a.|.    c.|.    [.a.+.+.I.0 1.A.V 1 o.7 h p _ . 2 f . . 9 . ",
"9 9 ; 8 W > f p s 1 N > C.C.'.+.* * * * +.'./ 3 & f E N p.z.z.+.* * +.l.    ] ]     l.+.* * +.a.a.  E ! p @ t 2 } r I f g + a 9 ",
"9 . z c > 8 G f a h 5 1 )   V.* * * * * H ) L L N x = L t.k.+.* * * * 7./ / (.(./ ) 7.* * * * H G.- t p T v w r K J ' g . a a 9 ",
"g N 4 5 t 2 I T G J q m 3 ) #.* * * * * ] - L 0.; q ! 4 / H * * * * * #.) ) (./ <.) #.* * * H - - _ 2 s M d s 4 ! > o. .N g + + ",
"0.! 2.h h ,.5 ~ 4 & 1 z 3 <.] H * * * H ] - , 0.. 9 + 8 - P H * * * H ] <.<.<.].- <.] H * H #.3 3 Y D x } 4 k c 6 ! ,.v J ' z u ",
"v.Y ~ = 1 6 j I 1 & & ; `.- f.P ] P ] ] f.3 j q 9 . N a 3 f.P P P ] ] f.- 3 3 G 3 - f.P P P G.- 3 7 , , s x 4 k q 2.t k } f > t ",
"v Y } ; ; g 2 o.1 8 q 1 z g.3 - - - - - 3 L K r ! e z D u 3 - - - - - 3 1 0.0.5 e E 3 - - - ) $Xf 8 c d } 4 ! , @ > @ 8 q 6 4 ! ",
"a c t h 9 + c _ e 8 q 8 ; g . = V g. .t 2 x = + w } v f g 6 g.e.L m G 1 N + + ! 1 1 g V @ e.g.T f c c ! 4 ! @ S j q 8 @ @ @ @ 8 ",
"8 e 6 j 9 e ; h a e 8 q @ j o.W u N N j D e d a + K D = M = + . ; 6 8 e 1 & e } 1 , a 6 g g ; J s 8 6 @ 6 , c J 8 & @ @ 6 6 @ @ ",
"& 4 2 ; e e g 2 x M s r W F.W o.W w 2 = 9 g 5 . g w 4 4 c = 8 e e 6 = & & 1 9 > 1 8 e T ; + @ I ~ s K s D r F.' 8 1 8 @ 6 6 @ q ",
"x 7 G . e e z !.~ t j W T r V . D h !.. j 2 ,.j w W c 8 6 , k e 1 a a a e a ; w a 1 ! _ q 6 w 5 j _ Y _ v ~ > Y p r x 6 @ @ 6 k "
};
