/* XPM */
static char *result[] = {
/* columns rows colors chars-per-pixel */
"64 64 256 2 ",
"   c #009700",
".  c #00A700",
"X  c #00B500",
"o  c #00C400",
"O  c #009C00",
"+  c #00AF00",
"@  c #00BF00",
"#  c #00C900",
"$  c #00C100",
"%  c #00D000",
"&  c #008200",
"*  c #00B800",
"=  c #00DB00",
"-  c #008F00",
";  c #00C700",
":  c #005400",
">  c #009200",
",  c #FF0150",
"<  c #006800",
"1  c #007500",
"2  c #00D700",
"3  c #00CE00",
"4  c #00A900",
"5  c #00CB00",
"6  c #00B200",
"7  c #FFE3E8",
"8  c #007C00",
"9  c #00D200",
"0  c #00AC00",
"q  c #00D900",
"w  c #FFEFFF",
"e  c #00BD00",
"r  c #008600",
"t  c #FED0DA",
"y  c #00BB00",
"u  c #FEBFD6",
"i  c #00A200",
"p  c #009F00",
"a  c #00D300",
"s  c #FFD7E0",
"d  c white",
"f  c #FFE7EC",
"g  c #00D500",
"h  c #FFEAE8",
"j  c #004C00",
"k  c #007900",
"l  c #FFEFF4",
"z  c #005D00",
"x  c #008900",
"c  c #00E000",
"v  c #007F00",
"b  c #FE809E",
"n  c #FFECEF",
"m  c #FFD6E5",
"M  c #00A400",
"N  c #004400",
"B  c #006D00",
"V  c #00EF00",
"C  c #FEB5CA",
"Z  c #FFCADA",
"A  c #FE688B",
"S  c #00E500",
"D  c #00E200",
"F  c #FE7D98",
"G  c #FEBFCF",
"H  c #FE99B4",
"J  c #FFC5D0",
"K  c #00DD00",
"L  c #FFDAE7",
"P  c #FEA6BC",
"I  c #FE95AB",
"U  c #FFE8F1",
"Y  c #006300",
"T  c #FFCDE6",
"R  c #008C00",
"E  c #FF3353",
"W  c #FFC4D8",
"Q  c #FF416E",
"!  c #00EA00",
"~  c #FFACD1",
"^  c #FF3C55",
"/  c #FFDEE3",
"(  c #FFDFE8",
")  c #FFC0E9",
"_  c #FDA3BA",
"`  c #FF3560",
"'  c green",
"]  c #FFD3DF",
"[  c #FE5675",
"{  c #007000",
"}  c #FD718E",
"|  c #FFDAF3",
" . c #FFC7E9",
".. c #FEB8D1",
"X. c #FD5C7B",
"o. c #FE7795",
"O. c #FEB0C5",
"+. c #FFD4ED",
"@. c #FF2A53",
"#. c #FF035A",
"$. c #FF4876",
"%. c #FFCDE0",
"&. c #FFE2ED",
"*. c #FF98C5",
"=. c #FF2250",
"-. c #FFCDD5",
";. c #FFBDDF",
":. c #FFC8D7",
">. c #FE5A81",
",. c #FFB8D6",
"<. c #FFDEFA",
"1. c #FFB3DC",
"2. c #FED7DB",
"3. c #FF93BC",
"4. c #FF1B4B",
"5. c #FF9FCA",
"6. c #FD495F",
"7. c #FD89A0",
"8. c #FDAAC2",
"9. c #000A00",
"0. c #FF8CA8",
"q. c #FE4B69",
"w. c #002D00",
"e. c #FF2A67",
"r. c #FF82AB",
"t. c #FD7790",
"y. c #FFE9FE",
"u. c #FEA1B5",
"i. c #003600",
"p. c #FFF4F5",
"a. c #003C00",
"s. c #FD6481",
"d. c #FF1C5C",
"f. c #FF366B",
"g. c #FF4F7F",
"h. c #FF0F4F",
"j. c #FFC6DF",
"k. c #FE4468",
"l. c #FF9EBD",
"z. c #FF0D43",
"x. c #FF4357",
"c. c #FD374A",
"v. c #FF2C4B",
"b. c #FAFFFF",
"n. c #FF84B7",
"m. c #FD4F72",
"M. c #FEDCDE",
"N. c #FF1653",
"B. c #FE86A3",
"V. c #001F00",
"C. c #00FA00",
"Z. c #FF295E",
"A. c #FD3043",
"S. c #FE91A6",
"D. c #FF6D9A",
"F. c #FE8DB3",
"G. c #FD2435",
"H. c #F1FEDD",
"J. c #FFD1F7",
"K. c #FF558C",
"L. c #FF5F9D",
"P. c #FF2543",
"I. c #FFBFF7",
"U. c #00F300",
"Y. c #FF6BC6",
"T. c #FF5F89",
"R. c #D6A000",
"E. c #FFF6FD",
"W. c #FE0339",
"Q. c #FEAACA",
"!. c #FF69A8",
"~. c #FFCAF2",
"^. c LightYellow",
"/. c #FE3F5E",
"(. c #FFA2DF",
"). c #FFACDD",
"_. c #FF79B9",
"`. c #FF6AB7",
"'. c #DCC200",
"]. c #EDFDC8",
"[. c #FF74AB",
"{. c #BA5F01",
"}. c #FF427B",
"|. c #E4E774",
" X c #FFFFF4",
".X c #F5FDEF",
"XX c #FFB7E8",
"oX c #FF66D6",
"OX c #FF536C",
"+X c #FB6076",
"@X c #FF82C5",
"#X c #894000",
"$X c #D1DC3B",
"%X c #FF1767",
"&X c #FE1C2F",
"*X c #E7D200",
"=X c #D8E558",
"-X c #00FE00",
";X c #FFFED3",
":X c #FF8BC7",
">X c #9B5400",
",X c #F68A72",
"<X c #FFA6F7",
"1X c #FFFFBF",
"2X c #FF77A1",
"3X c #FFFF8D",
"4X c #FD0315",
"5X c #ECDD00",
"6X c #FBB3BB",
"7X c #FFFFAE",
"8X c #FF3A8E",
"9X c #D9ED16",
"0X c #FF95FB",
"qX c #FF86E6",
"wX c #E0774A",
"eX c #952B14",
"rX c #FF052D",
"tX c #E4F999",
"yX c #811506",
"uX c #BE7A00",
"iX c #FF3479",
"pX c #F4BFA9",
"aX c #FFF777",
"sX c #C49610",
"dX c #DBCB4C",
"fX c #CBC902",
"gX c #F6D7C3",
"hX c #B98D00",
"jX c #E84649",
"kX c #E9BE80",
"lX c #DD936D",
"zX c #D4D403",
"xX c #CBB100",
"cX c #D9FA72",
"vX c #FBAA9D",
"bX c #EAA052",
"nX c #FF90D4",
"mX c #A86A00",
"MX c #6F4B12",
"NX c #C32C2C",
"BX c #FEA181",
"VX c #213301",
"CX c #E3A330",
"ZX c #F7EDD5",
"AX c #B9B087",
"SX c #E83641",
"DX c #BCC500",
"FX c #64990D",
"GX c #C6E2BA",
"HX c #FF4FBB",
"JX c #363F00",
"KX c #507906",
"LX c #8BFE93",
"PX c #6D9A5D",
"IX c #CFBF1C",
"UX c #00B500",
/* pixels */
"N S % 5 3 2 2 V.< z < : c c K = 2 5 : 8 p   v - p & 8 k 3 $ y 9 5 2 g a a q 2 X ; o < a.M r w.L.> ' %XO '   z 1 a.& 8 + 3 @ * i ",
"Y D 3 5 3 2 Y R 1 j r V D K K K c V > r 0 4 M 0 4 . M & > 3 $ q 0 O 0 X ; ; 0 N & : 9.z : i.LX8X}.e.Z.e.N : 1 > 8 w.: V.& : 1 Y ",
"j D % 3 = i 9.x 1 + C.S D K K = g ! : . . O p 0 X M 4 p * M y # { 5 q q .   1 j = 3 M   c c 8XD.} s.OX` Z.r Y o 0 v : N - N O > ",
"v y = g X i.k : > B * c S c K K K U.8 X O X   6 * y 5   (.oXx 8 = oXoXGX& v 1 O x q 3 + i.PX_.*.*.@X[.m.%X' e < 3 M < > r p i a ",
"p i.3   k $ a e X 1 8 > 3 V V V S   0 * > p > O p   O oXn.[._.Y.`.!.!.`.( i V g M r & =   :X).Z / Y.;.`.e.FX3 # 5 ; : { z N 9.N ",
"{ z R z 3 ; # a O { { < B q x R k   + *   .   p 0 4 Y.!.r.3.*.5.*.3.r.D._.k ' M K 4 - g 3 (.%./ f 5.h 1.8X#.2 < 5 5 > r $   r - ",
"x a 3 5 o o # a 1 { v 8 9.Y : - < y r j O 0 p 8 e @X`.F.5.1.;.) ) 1.Q.3._.Y.p + U.! @ 3 5 <Xm &.U 7 U / !.#.C.B a 3 o & 5 # ; Y ",
"0 3 # ; @ y ; + . + X X j w.B $ . p j 8 M M M < + Y.:X~ ) T L L ( m  .1.*.`.& > + 0 -XX : I.L U U U U ( @Xd.k w.! K c   3 # % { ",
"y ; o o o e @ 1 o * X ; <   5 @ 3 j 9.: a c + R AX@X). .( h h T h h 7  .~ [.8X< HXqX0XI.XX_.f l y.ZXy.U *.P.e.e.d.N.MX< 1 % % & ",
"e # o o # ; * & % o 6 < O # % X y Y 1 # M 6 2   oX(. .h h f n  .n f 7 / ,.b Q L.:Xj.m L ] W [.w w '.w y.P.$.T.K.Q @., eXO B 2 x ",
"$ 5 $ * 6 -   r & 1 ; r 6 3 5 $ O { 8 ; o v M   qXI.( h f n l j.l n 7 2.C F x.D.;.M./ ( ( m 9Xw w w w z.}.b S.0.t.Q P., 2 1 c k ",
"M + p > R B V.1 > > x < . 3 # 3 + > y o o p @ e <X+.h f n n p.;.p.f / -.6Xo.c.3.M./ U l U | T `.*XE.R.9X[.P ..,.l.} E , ' R w.N ",
"& r & v ! V 1 v O i p 8 a 5 ; 3 % p R X O O S qXI.h h n l l E.,.p.f s J P o.c.~ / f l w w y.+.b.R.d 8.8XH u u G u 0.Q , ' S & V.",
"! ! S D K c ! r 4 M O x 3 5 5 g r . 0 . * y S <X~.h f n l l p...n ( s G u.t.m.,.s ~ l w 5Xy.5Xd .X( vXK.l.,.wX:.u h.g.h.' C.. O ",
"V S K g 3 3 a   . O O 0 ; 3 a q 8 : B 2 V # = <X| h n n l l n f ( s ] G _ t.m.../ l l E.w h +./ B.*.^.kXH...-.-.u 8.>.4., ' e z ",
"  1 D q a a g 8 - 8 e & 0 a c : R y.(.0X0X0Xe <XU h f f n f 7 7 / ] t :.P F k.C / n l l w gXd Q.t d 1X3Xn._ J J G l.[ 4., !   V.",
"9.i.% S c K = g x & o o B i > oXnX(.XXI.) I.I.).~ h 7 &.( ( &.U ( ] Z :.8.7.k.5.M.U w w w gXH.m ZXbXF.d t.).;.u ,.0.Q v.z a.: r ",
"x j z k D 3   { N N R i ; 3 Y.:X).) +.( h f ( %.~ r.( ( m L <.uX<.] :.j.O.} G.r.t ( w '.|.b.^.d s.=X-.J  X=XyX;.P } ` =.$ . 4 - ",
"o * O j > 1 < < X v Y - 3 Y.@X). .( h h 7 7 / 2.G 3.T.+.m m <.R.<.] Z T ,.^ /.s.O.2.U w !.CXH.;X].bXd.` CX[.3.H b $.=.j 2 o y y ",
"y e X a.j 8 ; o o ; 8 : nX_.5.) 7 h 7 f 7 ( 2.-.C l.'.J.m m | kX| ] T J.hXjXX.X.b G s n.~ pX*.d g.].b.,X` m.A A g.` N.o e 6 X * ",
"y y - & . x o y y o % i.@X3.1.L h f f 7 7 / t J O.3.'.}.| | J.IXJ.+.| Z.sXA o.F b F 2XC j.t ,..Xn d ;XcX6.P.E ` @., & 1 $ y X * ",
"y e 8 1 1 ; o @ e o p : _.5. .h 7 7 7 ( ( L t J O.l.r.T.F.#XJ.|.J.#X<.$.A F 7.I _ 8.H u 9XJ.9X~ pX3XK.n._ ~ #X&X@.V 4 B < o y * ",
"y p   p < y r > i + 6 1 Y.~ T / / / ( ( L m m Z C _ 0.cX}.'.J.H.~.$Xe.cXD.0.H 8.u [ u.W | | J..XmXd {.tX;.;.,.2Xe.+ ! * > < * y ",
"6 x N 3 + 1 & > O M x 6 `.5.W 2.t m L s s m +.+.W Q.3.7.$.sXXXd XXmXf.].r.l.Q.;. .X.u.Z m L | ~.{.].>Xj.W J u F.iX, 6 ! % 1   M ",
"j z . e i z r .     N 0 L.F.*.J t L s ] s | uX<.+.1.hX2Xd 4.5.1X5.l.d L.uX#X;.) {.T.u.] s &.fX<.N.,X5.j.-.-.G l.$., ; O ! k B : ",
"0 9.w.Y <   : x e * X iX>.F u.F.T.o./ s s | R.#XJ.XX'.[. X4.H.aXl.W.;XL.R.(.) ) R.>.H %.s t +.| 4.xX5.W -.-.G _ g., V 0 ! 0 k * ",
"S z j v j B r : 0 q C.%Xq.s.B._ J m f.s s L | J.$XXX*.$X}.,Xd ^.d 1Xe.|.n.5.$X;.+.k.S.W s s ] T G.>.H u J C u H $., ' y $ 1 e = ",
"= . w.< O @ # x + @ 4.N.^ [ o.I O.:.t t 2.M.] T  .H.3.D.b.^.aXd aXd d K.h b.1.u L c.o.O.Q ] %.8.o.6.F O.u u Z.B.` , '   * v v g ",
"g o Y + 5 5 3 + ; ; ! , E 6.s.7.P u J -.t 2.t %.~.1. XBX Xb.^.].].W.vX7X7X*.)  .&.&X+X7.O...O.7.[ A.[ B.P 8.I >.E , M O 5 M a % ",
"% * @ ; # # % . 5 o U., v.6.X.b _ u G J :.t Z  .fX#Xn.7XH ^.rXZ.|.t.b.}.2X*.fXyX| 4XA.X.F 0.b X.c.G.^ X.o.o.T.e., eX+ . i p 3 3 ",
"3 @ . # # 5 a - 3 % U.N.=.G.m.o.P...u G j.T j.j.) ~ tXd b.h.=X6.bX, ^.;XH.n.). .T <.w A.q.[ q.c.^ 6.G.^ Q Q ` #.'   @ y e . ; 3 ",
"3 a a 9 % a = x q = K N z.P.^ 6././...,.) {.~.) ~ F.D.f.1X,X, =X=X|.H.d 3X^.2.1. .{.lXrXG.A.G.&X>.x.c.z.@.E @.- x i.@ 3 o @ y 3 ",
"3 2 g a a q q X o $ < P.v.x.+XF b >._ C 6XxX~.=XH.d 3X^.b.tXc.=XwX,Xp.Z.g.6XM.pX) uX>X<.4X4XH } q.E @.O < , , M . & 1 { # $ y % ",
"6 O 0 X ; ; 0 N & : 9.4.^ >.I O.C l.>.H ~ ) rXz.z.z.W.d 3Xd wX$Xz.W..X;X.XD.n.*.~ 1.1.~ 8.I t.[ /.=.#.O $ o * X 0 . i & - 5 @ g ",
"1 @ 5 % .   k j K K ; =.K.u.G t 2.t 3.b [ &Xc.` zX#XkXW.g.]..XkXH.c.4. Xf.$XzXwXH u.H I B.} X.k.@.#.z X 0 i i 0 X M . O 0 p X $ ",
"$ e ; 5 x & 1 p - C.W.f.B.G L &.( M.;.4X&Xc.x.Q {.iXZ.aXd 3X].8.l b.7X^ 1Xg.wXr.0.S.7.F } X.k.Z.#.' & * O X   6 * y o > V.4 x v ",
"o 0 y 0 < M -XV e i 4.g.P m 7 f U / m A.G.E k.g.g.}.d d.d W.b.4XBXd f.b 4.d g.} F F F } X.q.Z.#.' i + y > p > O O     . a.B < 3 ",
"* 4 O   Y x ' NX, KXP.A ..L f n l 7 M.r.F.3.r.A dX].K.$Xe.7X;X4.E Q 1XtXn.D.tXg.T.A s.+XOX` d.i v O + *   .   p 4 p x . < & * 0 ",
"w.j z r & yXh.@.Z.` v.[ Z ( n l l U n.,.t W Q.D.r.n.{.L.}.3Xb.BXk.T.1Xn.hX).).dXsX$.q.6.x.` z O < y r j O 0 p 8 X . 3 $ O V.z { ",
"N g 8 p * h.E $.A A >./.%.f n l E.n.:.2.M.M.2.5.T.~ R.[.d iX|.7Xg.7.n 5.R.>X .) '.8.u.F X.k.8 9 0 p j 8 M M i < . . a g 6 x : 1 ",
"w.6 % = , 4.Q o.I H 0.D.jXU n l E.*X+.( 7 ( M.-.r.,.).:Xb.L.rXd K.>X*.H.) ~.T  . .,._ 7.s./.#.2 a j 9.: a c + - 9 9 3 a $   B i.",
"1 3 9 c z.E A H ....~ H $X2.l l !.j.| U l l ( 2.5...1.dX:XR.z.b.L.9X(.|. .%.Z Z Z W O.S.A k.#.% $ Y 1 # M 6 g O % 3 3 5 6 = : x ",
"- 6 2 & z.f.B.u G W  .~ 3.K.&.&.b.T y.w w l U M...Z ) xX(.#X4.].!.mX1.~.~.T ] -.Z Z C H t.Q d.S p 1 8 ; o v M O o o ; e + o N # ",
"r 4 3 & h.$.N.o.J ] yX) {.^.] b.Z *Xw '.w p.Q.t t L.eX) 1.*.=.=X2X*.u J.>X| s t t :.u u.o.$.d.-Xy   y o o p e . 6 6 * y 6 3 - V ",
"V - 4 eXh.$.H u -.s T H.*. XT b d <.w w E.l l ( ] !.DX;.,.l.=.,Xr.P u +.R.pX( 2.t :.W u.F m.@.NX! i R X O O = i i * ; ; e # i.g ",
"4 ! R M h.Q 0...J :.j.lX7X;X.Xb d +.*Xw w l l / Z L.6X,...l.@.hXr.P u T +.L 7 / 2.Z W _ F m.E #.  + + . * * q B < i q a ; % &   ",
"j v . . 4.` F ..u ) ) 5.d .X+X,X XT <.w w w f M.,.$.:...C l.@.zXr._ G Z Z ] / Q s Z u u.F m.E , > < k 3 D o % i N r % 2 a * 8 2 ",
"< . + w.4.@.T.H ;.sX=Xd ;X.X|.|./ u w y.5Xy.( 2.*.J G C 8.H v.+Xb u.C Z Z t 2.t s Z ..H } q.E =.4 : a.@ S y y 4 : :   + ; - { M ",
"N R > i.0 , f.o.3.rX=.>Xd H f.vXd .X*X<.<.&.s J D.G C C _ I A.+XF I O.u :.Z t s f.%.O.S.A 6.c.h.K B B + q g O & N r B R i & 2 O ",
"R V = 9.k q d.}.&X^ K.L.1X^.J d  X X1.T s 2.-.F.C C C P I 7.A.OXt.S._ C W :.:.t B.:.P b X.x.v., C.2 k Y M 0 x a : + < X r 8 $ R ",
"& ! k Y - v k z.E A F.gXdX6Xd d h  .H.nX~ Q.F.P C O._ I b t.A 6.s.F I P C G u W G Q I } m.^ N.R ! = 2 R a.{ 6 0 { B 9.< * 5 p x ",
"- v j X o r * h.$.0.lX;.O.d f.gXd 5Xy.5X| -.2X0.I I 0.F } s.[ ^ [ } b I u.P 8.8._ I F X.6.c., -Xq 9 2 c - { i.> Y + a.& i   i.- ",
"# X @     0 V.` A O.j.T T G g.G +.y.y.w &.t H } F F t.A X.OXk.jXk.[ A F 7.S.I S.7.t.g.q.x.=., V g 3 g q e y X D X X Y k : k X o ",
"2 g = % i V JXQ b u W %.fXj.>.G | y.y.U U -.u.m.s.s.X.m.q.` %X! @.f.[ s.A t.t.} A X.k.^ @.#.U.D a a 2 ; z   1 z : 2 & O 2 2 g 2 ",
"a g = ; a.p , Q 0.G -.] %.j.[ C <.*Xw f &.J I E q.q.k./.^ e.K g c %X` q.OX[ [ [ q.6.E SX' 8 g q q g o 0 Y o B & . > :   c 2 a g ",
"a q S e - ! 4.Q 0.u t 2.Z u 6._ +.<.U f &.G 7.A.^ x.^ =.#.& i 0 e p ` @.^ x.6.x.^ E d.5 C.8 * 3 ; * z Y { > r > x 8 k c 2 9 a a ",
"K c * O B   4.` b W W.:.W 8.A.7.W m ( g.L P o.P.v.@.=.#.' & { z j z o #.N.E E c.v.=.d.6 5 v R O z N k 4 i + 0 * 6 R z V D K g g ",
"V 6 w.1 k : z.^ A 8.W u C B.G.>._ %.] m G S.>.W., #.MXo C.+ 8 e 0 9.w.< 8 #.=.N., , o > O x - > < a.  6 4 X * y @ X j > 8 k S S ",
"V.j N . % 2 W.v.$.d._ _ B.>.v.^ o._ C O.A A Q V ' C.U.e o k e D S z j & : k O Y ; ! c 6 6 x = D   & * e 0 + X y o w.B y 0   R B ",
"- N 4 q = V   N.d.g.} } >.e.z.=.f.A b F K.e.%Xp e g ! > * v v q K . w.< p o % R 6 * 6 ; 0 v 2 = x y * + 4 * X y $ R o ; o e * X ",
"9 y B 1 g q # z ' d.f.f.Z., ! M #.e.Q k.` ; X c x 4 -   5 M a a g o Y + 5 5 3 + o y e 3 p g 2 B   y y X X 6 $ < & o ; o $ o $ ; ",
"# 3 @ v a % c k C., h.h., > z a.' #.h.=., ! X g g x p M i p 3 3 % * @ ; # # % . # y # * a a a 8 0 ; @ $ @ e y 8 ; # o $ @ @ $ $ ",
"# * & q 3 3 K r o VX#.6 i.9.a.z a.O VX#.-XV p q c r X * y . ; 3 3 @ . # # 5 a - 5 ; 3 { q g @ : N 0 x 0 p > V.k ; 5 ; $ @ @ o o ",
"+   1 q 3 % S 9.N k R a.1 > C.q i k 9.U.r r j v r i.y ; @ e y 3 5 9 a % % a q r a 5 6 : o @ r O v : j : - N R j Y > 6 @ $ $ @ * "
};
