/* XPM */
static char *result[] = {
/* columns rows colors chars-per-pixel */
"64 64 256 2 ",
"   c #00D700",
".  c #00BC00",
"X  c black",
"o  c #00CD00",
"O  c #00DE00",
"+  c green",
"@  c #00CA00",
"#  c #00C300",
"$  c #00BE00",
"%  c #00D500",
"&  c #00B400",
"*  c #00C500",
"=  c #00BA00",
"-  c #009100",
";  c #00B600",
":  c #00D900",
">  c #00CE00",
",  c #00C000",
"<  c #00A900",
"1  c #00A400",
"2  c #009700",
"3  c #008900",
"4  c #00AF00",
"5  c #007500",
"6  c #009D00",
"7  c #00CC00",
"8  c #00AD00",
"9  c #009A00",
"0  c #00A000",
"q  c #00B100",
"w  c #00A600",
"e  c #EE2C01",
"r  c #DD2600",
"t  c #FF0006",
"y  c #00A200",
"u  c #00AB00",
"i  c #00E300",
"p  c #008200",
"a  c #E02D01",
"s  c #008600",
"d  c #006E00",
"f  c #00E000",
"g  c #008E00",
"h  c #007C00",
"j  c #E33303",
"k  c #00C900",
"l  c #006600",
"z  c #007200",
"x  c #00E800",
"c  c #009400",
"v  c #007A00",
"b  c #006100",
"n  c #004C00",
"m  c #008B00",
"M  c #00E600",
"N  c #008300",
"B  c red",
"V  c #00CF00",
"C  c #E43201",
"Z  c #FF1801",
"A  c #005400",
"S  c #00B800",
"D  c #00D000",
"F  c #E73101",
"G  c #FF1200",
"H  c #010419",
"J  c #E13101",
"K  c #000112",
"L  c #007F00",
"P  c #EF3201",
"I  c #00EB00",
"U  c #006C00",
"Y  c #005100",
"T  c #00C600",
"R  c #FF0601",
"E  c #00F100",
"W  c #007E00",
"Q  c #005C00",
"!  c #FF2A02",
"~  c #007800",
"^  c #EB2500",
"/  c #FF0C01",
"(  c #000712",
")  c #010003",
"_  c #00EF00",
"`  c #00030B",
"'  c #FF3401",
"]  c #005800",
"[  c #050306",
"{  c #DD2C00",
"}  c #FF1C01",
"|  c #FF2118",
" . c #EC2A01",
".. c #FF2101",
"X. c #00DA00",
"o. c #020B0D",
"O. c #00D100",
"+. c #003F00",
"@. c #EC2F02",
"#. c #004700",
"$. c #00D300",
"%. c #008800",
"&. c #002B00",
"*. c #00C700",
"=. c #00F400",
"-. c #FF2503",
";. c #00DC00",
":. c #004300",
">. c #009600",
",. c #001014",
"<. c #0B020C",
"1. c #140214",
"2. c #090416",
"3. c #00FB00",
"4. c #1C001F",
"5. c #E32B00",
"6. c #00F801",
"7. c #003300",
"8. c #0E0D0F",
"9. c #E80800",
"0. c #ED524C",
"q. c #006900",
"w. c white",
"e. c #FE5330",
"r. c #DC1300",
"t. c #ED2200",
"y. c #002000",
"u. c #090C15",
"i. c #10001B",
"p. c #001600",
"a. c #003A00",
"s. c #F02801",
"d. c #F63500",
"f. c #FF200D",
"g. c #FF3A05",
"h. c #FFF8FF",
"j. c #003700",
"k. c #E82A00",
"l. c #F9E4C3",
"z. c #EE0500",
"x. c #FF4433",
"c. c #000800",
"v. c #F90900",
"b. c #040323",
"n. c #363A3F",
"m. c #76FF97",
"M. c #EA3603",
"N. c #FFEBFF",
"B. c #DFACDF",
"V. c #F52A01",
"C. c #1D1F26",
"Z. c #DFBCDF",
"A. c #FF0D19",
"S. c #D82300",
"D. c #0B0B0C",
"F. c #FFC6FF",
"G. c #FF140C",
"H. c #FF3235",
"J. c #FF2A19",
"K. c #FFB5B2",
"L. c #F91B01",
"P. c #874A8E",
"I. c #FFDEFF",
"U. c #FFD1FF",
"Y. c #F21304",
"T. c #7A5B80",
"R. c #57E048",
"E. c #FEF1FE",
"W. c #FFBFB5",
"Q. c #F10809",
"!. c #D92C05",
"~. c #5EBD54",
"^. c #F4BDF4",
"/. c #32769D",
"(. c #54C84A",
"). c #D23407",
"_. c #E74C31",
"`. c #022340",
"'. c #FC2700",
"]. c #847385",
"[. c #002C28",
"{. c #3A0D41",
"}. c #0F0A4E",
"|. c #EDD1ED",
" X c #5E545F",
".X c #6A6C00",
"XX c #9BAF7B",
"oX c #FFBAFF",
"OX c #5D9F50",
"+X c #CEC3D2",
"@X c #FCE9CD",
"#X c #63D254",
"$X c #76E598",
"%X c #5F2864",
"&X c #E31F00",
"*X c #4E4062",
"=X c #96D27C",
"-X c #37223F",
";X c #78F252",
":X c #D4492D",
">X c #FF1D39",
",X c #9CC080",
"<X c #FF3619",
"1X c #EF2D1C",
"2X c #22D222",
"3X c #995E99",
"4X c #0EA50E",
"5X c #9C829C",
"6X c #D01F00",
"7X c #35303D",
"8X c #952407",
"9X c #557850",
"0X c #FF050D",
"qX c #D00E00",
"wX c #C29EC3",
"eX c #FE7256",
"rX c #E62101",
"tX c #4D1C0D",
"yX c #6E3E00",
"uX c #E48EEE",
"iX c #FFCBCC",
"pX c #B7EEFD",
"aX c #708F00",
"sX c #B881BF",
"dX c #F9977B",
"fX c #76BA95",
"gX c #A951A9",
"hX c #FF4D5F",
"jX c #00344D",
"kX c LightCyan",
"lX c #737E73",
"zX c #989599",
"xX c #9D3617",
"cX c #2CFF5A",
"vX c #A8C7A8",
"bX c #C9A8E4",
"nX c #0DC00D",
"mX c #077C07",
"MX c #6FC66F",
"NX c #00D72E",
"BX c #C7ECC7",
"VX c #0AAC0A",
"CX c #76D476",
"ZX c #7E1F2B",
"AX c #E3806F",
"SX c #28C161",
"DX c #4C0E4D",
"FX c #00EA63",
"GX c #219522",
"HX c #2ED865",
"JX c #23E724",
"KX c #859900",
"LX c #02B46E",
"PX c #9AE67B",
"IX c #00BC00",
"UX c black",
/* pixels */
"#.M O.@ >     y.l ] l A f f O ;.  7 Y h 0 9 L - 0 N h ~ > # . O.7 % % $.$.:   & T * q.a.1 s +.6.N @ . s =.c Q 5 a.p h 4 o $ S 0 ",
"b i > @ V   b g 5 Y s _ i ;.;.;.f _ - s u < 1 u < w 1 N - o , : u 9 u & *.T u :.p A X Q ] :.=.X.W   5 b :.Y z - v &.A y.N Y 5 l ",
"#.i O.V X.0 c.3 z 4 6.M i O O X.% I Y < w 6 6 < & 1 < 6 8 6 ; * z $ @ O.w c ~ n X.> 1 >.X.7 $ - z O v ~ n h b # 8 L A :.g +.6 c ",
"L = ;.% & j.v ] c U S f M f O O ;.=.h & 6 & 2 q ; = # - y.< %.W # $ *.7 %.p 5 6 3 : > 4 +.U N v d N 6 , 7 M & q.V 1 l c s 0 0 $.",
"0 j.> c v , $.. & 5 h - o _ _ I i >.u S - 0 - 6 6 >.c < a.U q.> *.u = u l 0 I $.1 s N X.>.&.c 3 A # ;.x I E = *.@ *.Y z Q #.p.+.",
"d ] m b V k @ % 9 d z l U X.3 g ~ 2 8 ; 2 w 2 6 < 0 3 w l p S 8 ; < 6 >.b h 3.1 O < g $.T l > c & i O i f _ $ l @ @ c s # c s g ",
"3 : X.% o o O.;.~ 5 p h c.l ] - q.= s Y 9 u 6 h & < > # 6 y.Q 5 &.n b p 5 U 2 < _ x $ @ T < =.6 @ M $.%   _ ;.U % V *.s $.V k b ",
"8 ;.uXf I M =.% k @ T $ Y &.z @ 4 w n L < w 1 q.< < % % q %.A ~ +.% v c 2 9 L g < < E S v q 6.h f I I _ i + ~ j.=.I =.u $.U.  U ",
"$ ;.P.[ 1.1.1.<.[ 3XnX=.h ; 6.I 3.A c.] _ =.S c X.X.  ;.@ 6 z 7.&.= $.k O i 4 z 4 ; =.w z + l I 3.+ + + 9 VX3XX 4.4.1.1.X oX;.L ",
", ;.gX<.<.1.1.<.<.<.1.1.4.4.4.4.4.<.1.DXB.8 JX(.+ 3.3.6.: + b < s 3.6.x < # f S R.GXy B.{.[ [ 4.4.4.4.4.1.1.<.<.<.<.1.<.X h.i 3 ",
"# $.;._ {.7Xn.n.n.C.u.u.u.2.2.2.u.u.u.` ` K 2.2.i.i.i.i.i.i.i.i.i.i.i.i.i.i.i.i.2.2.K ` ` 2.u.2.2.2.2.2.u.( C.n.n.n.7X{._ ~ M ~ ",
"1 4 w < 2.b.o.` o.o.,.,.,.,.o.o.o.o.( ( ( ( K ( K K K K K K ( K ( ( K ( ( K K ( ( ( ( K ( ( ,.o.o.o.,.,.,.,.o.` ` ` b.K + g &.+.",
"p s s s + B } } } ! ' ' ' ! ' -.G Z } G Z Z / Z Z G / / G / ! -.....Z G / Z / Z } Z } } ! / } Z ! ' ' ' ' ' -.} B B t + _ ;.p p.",
"I I M M _ + + 0 NXH j d.P !.`.pXHXI =.I + + + c g M + + + + ; r.G + q = I 8 O.. + 6 + g @ + + SXpX`.L.d.d.).K kX9 + =.x O M 1 9 ",
"_ M ;.% D $.;.0 # }.| P P j ` ) ) H K H H b.H H ` ) b.4.{.*X/...! /.*X-XC.b.) K H b.b.H H K K ` ` ` ' P P } }.% g 7 ;.O ;.M S Q ",
"2 5 i X.% %   L 0 9 A.@.P ).K H H H H H H H H H H H H H H K K ! ! b.K ( H H H ,.H H H H H H H H ( K ' M.e / _ < l > # $.*.o c y.",
"c.7.D M i M M x 6 1 t @.C C ..! ! ! ..G R R G Z -.Z } G / G R d.' G G ! G R G Z G R R G Z ..! ! ! -.V.F k.J.+ O m u & A A +.A s ",
"%.n b v _ I q s ..' !.F !._.' M.d.c./.LXi I ; + l _ s 3.& w + f.-.+ + X c + E E + + + M FX/.tXd.P 1X:XC 5._.G G 6 0 9 A < y < - ",
"# S 6 n 1 t ..-.L. .5.j a { a j M.d.'...! -.Z Z -.! g...G / } s.s.G ..-...-.! Z / / / Z Z '.P F j J a J j 5.e '...B 0X8 *., S = ",
"= $ ; +.] t ..V.s.5.a j a { { j j F F k.k.@.@.@.@.@.@.@.@.@.M.C C F @.e  .@.@. . .@.@.@.k.F C j J J { j j a @.e V.! t # S q & ; ",
"= = - s . >XB t t R z.F J { j a j j J J d.'.C r r r r r r r r k.V.S.r r r r r r r J M.1XJ J j j J J { j a / f.t t B hX~ # = ; S ",
"= $ v 5 h i x M x + | M.J 5.r 5.j S.j J  .).J { J 5.a a a a a { g.{ a a a { J { { J { !.j J S.j C r C j k.>Xs N - i u U l * = S ",
"= 0 9 0 q., m 2 4 $.t @.F e Y.s.F 6Xj j J J j C C a a a a a J J J J a a a a J C F C j j j j S.C e V.s.F ^ J.D *.& 2 X.S - q.S = ",
"q 3 :.> 8 5 p - 0 # t @.s.e.+ }  .5.r j { j C xX:X0.0.0.0.0.0.e 6X0.0.0.0.0.0._.8XC J { a S.a k...w |  . .J._ M $.8 0 i D z >.1 ",
"n Q w $ y Q s w 6 & G e ^ x.& Z s.-.L.k.r J C C 5.r r r r r r a r r r r r r r { F C { { &XqXL.^ Z u f.e  .<X3.M   # 8 9 M v d ] ",
"8 X 7.b q.9 Y %.* % t P t.x.S Z ..9X~.Y.k.r 5.C 5.qXr.r.r.r.r.rX9.r.r.r.r.r.S.a a 5.S.5.9.m.iX9...% G.e  .<X& I   $.o w x u ~ ; ",
"i Q n W n U s ] q 6.t e t.x.+ B G OX~.v._.AXk.M.&XeX@Xl.l.l.l.W.iXl.l.l.l.@XdXP ).&XdX .9.m.K.9.-.w f.e  .| v # %   X.& , ~ $ ;.",
";.w &.q.6 , k %.& % t e t.x.+ R G (.~.v.e..XL./ Y.B B B B B B B B R B B B B R rXG Y.=XQ.z.m.K.9./ + G.e ^ A.- c & V i c ; L W % ",
"% # b 8 7 @ > 4 7 f t e t.H.+ ..G (.~.v.e..X/ N ..3._ i i i i I E : ~ p 3.+ E / + B =XQ.z.m.K.9.R + G.P  .| . ;.s < - >.@ 1 $.O.",
"D S , *.k k D < $.i t e t.H.+ } / (.~.v.e..XR 6 t _ O.*.*.*.k @ V % T p ;.O + t + B =XQ.z.$XW.9.R + 0Xe ^ A.@ X.% 3 0 1 0 0 o > ",
"> , w k k 7 $.g $.=.t P t.H.+ ! ..~.OXv.e..X' 2 t I V * # # T *.@ ; L : D % + t I B ,XQ.z.fXW.9.! u f.e ^ A.; f O s ; S . w *.> ",
"o $.$.O.O.$.;.3 f + t P t.H.4 Z Z 9X9XL.e.yXG Y ..q # 7 @ @ *.* & c d % > X.+ ' #.G XXY.z.$XK.9.Z L g.e  .J.#.h p 7.$ o * $ = > ",
">   % $.$.X.: ; @ i R P ^ x.+.B G R.#Xv.x..X..m g.N 5 < *.= & 6 7.M   V V O 6.-.~ Z XXY.z.m.K.9.B + -.e ^ | c 2 0 N ~ z @ , = D ",
"q 9 u & *.T u :.s b -.P  .e.+ R Z R.OXL.e.yX} = Z &.A p.p Y 5 l A i V 7 D f U t - Z XXQ.z.m.K.9.R + G.e ^ | $ q < w y N - 7 $ % ",
"5 $ @ O.w c ~ n i 6.t P t.H.+ Z Z R.OXv.e.yX..+ t g A :.g +.6 2 +.i O.D X.w X t g B PXQ.z.m.K.9.R + ! e ^ | S 4 & 1 < 6 8 6 & # ",
", $ *.7 %.p 5 6 g + t e  .x.w ..Z OX~.v.e.aXR W t = q.c s 0 y % h = X.% ; a.m R $ G =XQ.z.m.K.9.R + f.e ^ | 8 S S = # - y.< %.L ",
"* u = u l 0 I % u 0 t e ^ e., Z ..(.#Xv.x.aXR + B I n z Q #.p.+.y j.> c v > + A.I / XXQ.z.m.K.9.R *.G.e ^ | < y 6 >.c < a.U q.V ",
"; < 6 >.b h 3.1 M 7 t e t.x.+ Z / R.#Xv.e.aXR v B uX9 s # c s m 5 Q m b O.O P.B @ G XXY.z.m.K.9.} k G.e ^ | 8 y < 0 3 w l p S u ",
"&.n b p 5 U 2 u 6.+ t e t.H.+ G R R.#Xv.e.KX/ L X sXV p 7 @ T Q g $.V @ *.f %X) c Z ,XG.Y.$XW.9...3.f.P ^ | ; L & < > # 6 y.] z ",
"#.% ~ c 2 9 W g 8 @ t e  .H.+ ..R R.#XR e.) ,.+XX sX  - @ k V b & D k *.# V %XX T.C.,.f.v.fXW.9.G % ! e ^ | $ U < w $.% q %.A 5 ",
"7.& 7 , % X.< U 4 D t P  .H.b / / R.;XG eX) X ].w.E.N Q z > > 5 # k * * *.*.N.w.-X) ` f.Z m.W.9.R A g.P ^ A.7 - O.O.> $.# 2 d 7.",
"5 > @ $ m 0 S 9 7 - t P t.x.q / G ;Xb.C.[.X X wXI # $.9 g U $.h k @ * * k k $ 3 %XX o.[.tXb.iXz./ L f.e ^ | 3.6 O.o > 7 q X.Y 3 ",
"g 4 V z 9 , @ % 0 $.t e t.x.6 Z Z ;X` ` X X X B.=.% ;.: S 5 ;.l D > , ; q g >.3 5XX X [ ` X @XZ } >.-.e ^ J.$ 0 # # T . 4 * #.k ",
"s w # z y *.@ 3 U S t e  .e.`.! g.ZX` D.) E.U.F.I @ $.X.M 3 &.&.; q 0 - m d p.U U.I.h.) o.) 8Xg.! /.-.@.^ | O u q & S = q > g _ ",
"E g 0 u @ u @ 4 2 . t P e e.K H ( ` ` [ X b Y O.;.> O.% ;.: h X c 3 s W I _ z h 6 < . X [ ` ( ( ( K ' P ^ | + 1 y S *.*.$ @ j.% ",
"< x s m < L c %.$ N B d.V.e.( ,.u.) C.X X h.N b s ;.$.% X.M 0 s 3._ M i O f x s < 1 h.X X <.) u.,.( ' d.s.f.cXU q.y : $.T O.N >.",
"n L 0 - b #.a.n w $XR ' ' g.,.u.8.) h.N.U.oXi S 3 # % ;.;.i & #.+ x ;.% > > $.>.w 9 F.I.h.h.X 8.u.,.g.' ! G 6.w :.s D   $.; h   ",
"l w < &.+.p Y p.Q T.` `.`.y.o.8.<.) , < M $ . 9 l 7 # O.*.o - p.0 5 i X.$.$.% h - ~ , v & + ) D.8.o.[.jX}.K bXq n A c 4 *.- z 1 ",
"#.m - 7.c @ 6 3 y P.) o.o.o.[ ) X X w.& ; 4 *.$ N 1 8 A A +.A s c.7.D M O O ;.% 3 L * # Q BXX ) [ [ o.o.[ X B.s :.s d m y N   6 ",
"m _ X.p.z @ 4 & 3.P.[ 8.8.[ zXn.C.+XN.MX; @ y y p %.3 Y w y < c N #.b v i o >.d :.:.m 0 (.N.].X 1. X[ 8.D.X Z.I Y 8 q.; s h , m ",
"p I ~ b m 5 q.q =.P.[ 8.8.) ].N.I.^.^.@ V = g s 5 M 9 9 # , = $ , S 6 n - 5 q.l & L b m $ F.F.N.w.*X[ 8.D.X B.S d U p.q.S @ 0 %.",
"- L n & # p 6 T 3.T.[ 8.8.[ mXx ;.% ~ . . & 6 0 g U h < & q & S = $ & +.Y h T # * *.v ] 7.0 M f =.T.) 8.D.X +X>.b 4 +.N 0 9 7.g ",
"@ & $ c >.y &.j.$. XX [ [ X lX$ $ $ z 0 0 5 ~ 4 > . z z . S ; S = = - N < %.# = = # o :.y.0 O % _ T.X [ [ X wX+ ; ; b ~ ] ~ & # ",
"  % ;.O.0   ] X w. XX X X X 5XU.q S y @ O.< U d W , 6 q.l * = S = $ v z ~ *.# , $ # 6 Q l L X.  I.-XX X X X ].w.:.: N 9     %   ",
"$.% X.*.a.g 9 n F.N.E.w.w.w.E.F.l ~ 1 O.< - 8 = 8 c % ; - q.S . = 0 9 6 q.. s - y 8 q v   z T : oXN.w.w.w.E.E.I.1 - Y 9 O   $.% ",
"$.: M . m T ~ c CX|.Z.Z.Z.B.^.w g ~ 2 = 5 c 7 ;.O.8 0 i D z >.w q 3 :.> 8 5 p - 9 1 3 w i ~ & D vXB.Z.|.|.Z.^.fXp v v O   O.$.$.",
"O f S 6 q.p Y d U U . 2X2X*.@ u 6 p v N j.] % ;.  # 8 9 M v d Q n Q w $ y ] s w 2 2 :.6 * h m 9 Y y.p 4X4X& < & q m Q I i ;.% % ",
"_ q &.5 5 n 6 +.& @ * . ; # *.@ 5 0 0 $.Y Q 6 i   $.o w x u v . u X 7.b q.9 Y %.. & 1 3 9 3 g - l 7.c 4 w ; S = $ & n - h ~ M i ",
"y.n :.w @ $ p A @ @ # . = * @ q n p z 5 Y 9 d . $.  X.& , ~ $ i i Q n W n U s ] < o D 4 q %.;.i 2 p ; . u 4 ; = # &.d = u 2 m d ",
"g #.< X.X.;.p Q o T # $ # # * ~ # O.& c q M L - & V i c ; L W : ;.w &.q.6 , k %.u q q T u W   X.%.= S 4 < ; & . # g # *.* $ ; & ",
"O.= U 5 % % . ] D k * * O.@ S 3 k > , ] z 1 y % s < - >.@ 1 $.$.% # b 8 7 @ > 4 # = . o 0 %   d c = . & ; & # l p # *.# # # # T ",
"k > , L $.D ;.5 O.V *.* # W ] a.X.%   ~ 9 7 8 $.% 3 6 1 0 0 o V O.S , *.k k D < @ = @ S $.$.$.h u T $ , $ $ = h *.@ # , , , # # ",
"@ ; p : V > ;.N q y u c j.p.a.Q a.s N w $.O 6 : O s ; ; . w *.V > $ w k k 7 $.g @ *.V d : % , A :.8 3 u 0 c p.v T 7 T # , , # # ",
"4 2 ~ : > D M c.:.d L a.5 - 6.: 0 5 c.: W N n W s j.= T , $ = > 7 O.$.O.D $.X.s $.@ & A * $ s 6 W A n A - +.m #.l c q , # # $ S "
};
