/* XPM */
static char *result[] = {
/* columns rows colors chars-per-pixel */
"64 64 243 2 ",
"   c #003400",
".  c #333D06",
"X  c #532E0A",
"o  c #4D3609",
"O  c #58330C",
"+  c #583713",
"@  c #5A3615",
"#  c #5D3B1A",
"$  c #723A0F",
"%  c #683813",
"&  c #613D1C",
"*  c #7B3C13",
"=  c #633E21",
"-  c #004400",
";  c #004C00",
":  c #005400",
">  c #005C00",
",  c #115B02",
"<  c #314F0A",
"1  c #295905",
"2  c #375907",
"3  c #006400",
"4  c #0D6703",
"5  c #006C00",
"6  c #007400",
"7  c #0B7702",
"8  c #007C00",
"9  c #137502",
"0  c #286604",
"q  c #386607",
"w  c #297805",
"e  c #327907",
"r  c #386714",
"t  c #377613",
"y  c #47470A",
"u  c #47580B",
"i  c #514E13",
"p  c #67550F",
"a  c #66411D",
"s  c #735212",
"d  c #47650A",
"f  c #566A0D",
"g  c #46790A",
"h  c #59750D",
"j  c #45701A",
"k  c #64670E",
"l  c #66760F",
"z  c #6F6711",
"x  c #786A13",
"c  c #6B7711",
"v  c #787814",
"b  c #644224",
"n  c #6A4727",
"m  c #6C492C",
"M  c #724929",
"N  c #764F30",
"B  c #675539",
"V  c #7C5333",
"C  c #566C2C",
"Z  c #735E42",
"A  c #756E46",
"S  c #833B12",
"D  c #963F15",
"F  c #874614",
"G  c #9A4817",
"H  c #865B14",
"J  c #985218",
"K  c #A64718",
"L  c #AB4C1A",
"P  c #B74B1B",
"I  c #A65519",
"U  c #B9571D",
"Y  c #856315",
"T  c #996718",
"R  c #877916",
"E  c #967718",
"W  c #A9681B",
"Q  c #B7671D",
"!  c #A8791D",
"~  c #B77B1E",
"^  c #914F26",
"/  c #AA5225",
"(  c #997226",
")  c #AA6C24",
"_  c #B66826",
"`  c #B87726",
"'  c #C94D1D",
"]  c #D24E1E",
"[  c #C7551E",
"{  c #D4541F",
"}  c #C56E1E",
"|  c #C95B21",
" . c #D75521",
".. c #D55B22",
"X. c #DD5D23",
"o. c #E05E24",
"O. c #CA6522",
"+. c #D46324",
"@. c #DC6324",
"#. c #D36C25",
"$. c #DB6B25",
"%. c #CA7922",
"&. c #D97624",
"*. c #C56D30",
"=. c #E46424",
"-. c #E76626",
";. c #E36C24",
":. c #EA6B25",
">. c #E46C29",
",. c #EB6E2A",
"<. c #E57425",
"1. c #EB7325",
"2. c #E37B25",
"3. c #E97B27",
"4. c #E47329",
"5. c #ED722B",
"6. c #EE7B2A",
"7. c #F37325",
"8. c #F47C26",
"9. c #FA7C27",
"0. c #F37429",
"q. c #F67C29",
"w. c #907753",
"e. c #008400",
"r. c #008C00",
"t. c #0D8902",
"y. c #188704",
"u. c #009400",
"i. c #0C9302",
"p. c #009B00",
"a. c #0B9D02",
"s. c #169903",
"d. c #288505",
"f. c #368608",
"g. c #279706",
"h. c #359908",
"j. c #01A300",
"k. c #0CA102",
"l. c #00AC00",
"z. c #0CAB02",
"x. c #18A604",
"c. c #00B400",
"v. c #0BB302",
"b. c #00BC00",
"n. c #0CBA03",
"m. c #16B703",
"M. c #37A809",
"N. c #2DB608",
"B. c #56850D",
"V. c #51900E",
"C. c #65880F",
"Z. c #63930F",
"A. c #688612",
"S. c #778714",
"D. c #7C8C14",
"F. c #6B9813",
"G. c #769615",
"H. c #7C9416",
"J. c #7D9B15",
"K. c #53AB0E",
"L. c #54B00F",
"P. c #62A50F",
"I. c #68A613",
"U. c #77A716",
"Y. c #6BB715",
"T. c #77B817",
"R. c #538932",
"E. c #55AD3A",
"W. c #01C300",
"Q. c #0BC403",
"!. c #00CB00",
"~. c #00D200",
"^. c #0CD102",
"/. c #00DA00",
"(. c #3FCA2C",
"). c #69C514",
"_. c #78C418",
"`. c #5AC63F",
"'. c #69B246",
"]. c #72B862",
"[. c #7ACD5C",
"{. c #878817",
"}. c #958919",
"|. c #849817",
" X c #99971B",
".X c #A6861D",
"XX c #B8861E",
"oX c #A9941D",
"OX c #87A719",
"+X c #96A61B",
"@X c #81B919",
"#X c #A1A81F",
"$X c #B49022",
"%X c #B5A722",
"&X c #B3B423",
"*X c #C98623",
"=X c #D88526",
"-X c #C89523",
";X c #DB9828",
":X c #E28426",
">X c #E88727",
",X c #EC852A",
"<X c #E58D29",
"1X c #EB8D2A",
"2X c #F48327",
"3X c #F48827",
"4X c #F3842A",
"5X c #FB8428",
"6X c #F48C29",
"7X c #FB8C29",
"8X c #E6942A",
"9X c #ED932B",
"0X c #E29B2A",
"qX c #EC9B2A",
"wX c #F3942B",
"eX c #FA952A",
"rX c #F39B2C",
"tX c #FB992B",
"yX c #C8AD26",
"uX c #DAA829",
"iX c #DBB62B",
"pX c #EAA62B",
"aX c #F4A62C",
"sX c #E7B82D",
"dX c #F3B82E",
"fX c #F1BF30",
"gX c #80C519",
"hX c #E9C22E",
"jX c #F2C130",
"kX c #A09267",
"lX c #AB976F",
"zX c #AD9871",
"xX c #BDAC60",
"cX c #AEB293",
"vX c #CBB489",
"bX c #CBB58A",
"nX c #D9CA96",
"mX c #E1CD9C",
"MX c #E8D1A3",
"NX c #E7D6B9",
"BX c #E8E0B1",
"VX c #EADDC4",
"CX c #EBE6CF",
/* pixels */
"3 !.!.W.!.!.b.; 5 3 6 8 ~./././.~.W.6 e.p.p.r.u.p.r.e.e.b.b.b.!.W.!.K.K.!.!.!.c.c.l.6 : u.e.5 ~.u.b.l.r.W.r.5 6 : 8 8 p.c.l.l.p.",
"6 !.!.!.W.W.6 e.6 3 r.~./././././.~.u.r.j.j.p.j.j.j.p.r.A.#.&.+.E .X2XJ.b.b.j.5 r.5   3 5 3 !.W.r.W.e.6 3 5 8 e.8 ; > ; e.5 8 6 ",
"3 !.W.!.!.p.- e.8 j.~./././././.~./.6 j.p.j.p.L.I.x.j.p.p.l ' P O.:.=.8XiXiXF.6 b.c.p.u.c.l.l.u.e.W.r.e.5 e.6 l.p.8 3 : e.> u.r.",
"e.l.!.W.l.3 e.6 u.8 l.~././././.~./.u.l.p.l.p.l.T.iX*XA.: f.) -.,X2.| +.6.v t.p.i.L.Y.x.5 8 r.e.8 r.j.b.W.!.l.e.b.p.6 e.e.r.u.c.",
"u.3 c.p.u.c.b.l.j.8 e.p.b./././.!.j.l.l.p.j.u.a.S.$.<XsXhXsX<X5.:.{  .] -.{.!.F.;XpX*XJ q > u.r.6 b.!./././.b.b.b.c.5 8 5 3 - > ",
"e.6 u.e.W.b.W.W.p.8 8 6 8 b.u.u.r.p.j.l.p.j.I.hXsX,X,X1XR }.eXaXtX9.q.;.2.rXXXJ | ,.+.L h 7 c.p.c.~././././.b.e.b.b.u.r.l.u.e.r.",
"u.b.b.W.b.W.W.W.r.8 e.8   6 5 u.8 l.r.5 u.j.a.y.}.X. .] +.,.,.@.:.7XtXeX7XtX4X-.:.1.H.n.c.l.~.j.W./.~./././.W.e.b.b.c.r.c.b.c.6 ",
"l.W.W.W.b.b.b.l.j.l.l.j.5 > g $XsX$Xd F.U.H.0XiX` K ' L O.0XrXX.J XXeX2.I U 4X3.;.8.U.c.F.yX&XP.!./././.!./.e.3 c.b.b.u.b.b.b.8 ",
"c.W.W.W.W.b.b.r.c.c.l.l.8 u.c.H.0.4X1X1X1X@.=.2.I.C.O.P *X;Xc H ,.,XqX:X| L P U :.q.<.*XiXgXJ.0X0X_.^./.u.l.p.p.p.u.u.8 e.b.b.r.",
"b.W.W.W.b.b.l.r.b.c.l.e.p.b.f.f {.5.4XtX7X9.;XF.T.Y.B.U <.@.H T ..+.-.:.@.+.| [ :.2.&.5.0.4.>.X.<XaX>XY.p.p.c.W.W.b.W.j.u.e.b.r.",
"b.W.b.c.l.p.u.r.r.e.c.u.Y.-XU C.c ] <.7X9.=.2.sXuXXX*XeX2XX.{ 3.tXrX9X<.,X2.+.,.4X2.| ' { 6.6X6.3XaXgXn.u.p.W.W./.!.!.!.c.e.b.8 ",
"l.l.j.p.u.e.: 8 u.u.r.8 I.<X1.J.z.z | X.{ +.1.$.@.=.:.5X5X=.o.3XtX7X0.q.5X.X.X,.3.:.7.q.9.eXtX3X&.I U ! g.u.b.!.~.!.~.~.~.u.> > ",
"u.u.u.u.!.~.e.r.p.p.p.r.I.2.0.qX;X+.+.4.S.|.tXeX>X1.wX@Xn.f.u M.+X#.s s XXpXqX0.7X6X5X7X5X3XrXrX%.} 5X3X{.9 e.b.!.!.!.~.~.W.e.- ",
"/./.~././.~.!.u.j.j.p.u.A.X.8XdXwX$.<X%X%XdXtX3.=.rXjXpX>XT y s K H J qX%X*X3X2.=.,.7XtXtX2.L u 7 e XXtXrXU.u.t.p.!.~.~.~.!.j.r.",
"/.~.~.~.!.!.!.p.A.:XS.l.n.B.+.,.:.x t.B.Q 3.7.9.:.>XpXqX+Xd.H.*XU G G { P u Y 6.5.o.+.:XwX%.&.pXhX*X@.|.OXU.W.c.p.b.!.~.~.!.l.5 ",
"u.r.!.~.~.!.!.r.{.9.H.r.Y.yX:X..F 1 < J U $.;.{ P } pXsX( r U.rXX.] K G P K ~ qX0.v a.D.7.7.7.7X7X7.-.0X_.n.Y.U.e.b.c.W.b.b.r.; ",
"- > b.~.!.^.V.~ 8.9.1.*XuXT.S.O.h 1 X @ ! qX5.-.{ <XqX5.G 0 Z.$...#._ S d w }. Xd.W.!.|.wX:X,X&.$.;.[ A.c.T.hX@Xr.j.j.6 6 3 5 e.",
"e.3 8 9 {.&.$.1.5X<.$.5.5.D.0 e _.0Xv 9 k.h.E >...=XpX:XS.u J L %.aX5XI # # * P O.;XyXuX2XwX9X{ ] P P K g G.6.4.>.;XI.5 a.p.p.u.",
"c.j.u.5 i.R 0.-.<X:X......2.-XK._.aX@.$.Q $XjX Xi a n / =XF.i.h *X7X{.u b 1 k ' =.5.|.D.7.=X=X7.@.R d.b.h.T  . .X.4.A.p.c.c.c.c.",
"c.c.j.3 3 B.*X,.9XrX7.7.4XeXtXOXm.D.;.eX3XT < q + * G s & t S.=XA.t.r b + o $ P ] z a.f.N.v.v.H.:XI.A.%.+.' L ' | P f j.l.l.c.c.",
"c.l.u.e.U.hX9X5.aXtX7XtX3XoXL.P.OX&X9X+.C.P.#XK.s.c L p y + ) 3X.Xf # F D r p X.<.O.%.;XY.x.V.V.OXT.c #.>.6.3X3X=.c {.9XU.l.c.c.",
"c.c.r.8 t.|.}.}.-. .1.eXR OXsX).L.U.{.v 7 U.8Xx v |.7 V.%X0X1X7X2XW # S | Y 2 H =.] | x x +.E x.z.v.j.h.Y P ;.5X7.3.3X-XB.c.c.c.",
"c.p.p.u.F.jXqX,X3.X.G W 8X=X|.Q.T.=X>.S.8 S.4.1XsXU.F.U.N..X7.:.o.=X|.h u U.U.H.fX*XP Y H X._ _ ;XiXL.A.L P -.~ l W 9.|.u.e.l.c.",
"p.t.u h.G.6.4.9XOXs.0 F o.0.H.W.G.4X3...#.wX7X0.rX0X&.U.F...] { o.J e T. XZ..X1Xq.7XeX&.O...' X.5.! g.c ..c g.f F I D.Z.J u u.j.",
"3 3 l #.<.1.*X*X{.s.2 ^  .] ~ &XqX-.=.X.U %.3X8.:.5.o.=X8X-.J o @ e l.S.;.&.wX<.@.9.9.$.[ o.,.o.W g 7 R 5.T |.uX>X2X>X$.[ h 8 6 ",
"p.  s 6.eXQ ! fXhX! % u d z ` =X$.9X9XX.] Q #.{ X. .H f p R -X;X1X1.} W =.7X_ 2 c =.wX#Xz U wXrXv l +.@.| +.5.&.&.9XtX=.@.<.v l.",
"W.6 , }.tX6X7.wXwX+.F o w S.J.U.wX7X4.E B.H.}.q e o @ d z O.&.3X1X1X9X6XE E R 7 g.u I wXoX{.-XdX1XS.t.z @.q.4X,.=.=XaX,XX.+.C.!.",
"!.Z.i 7 {.T y I X.L h w J @.F.K.XX5X-.] W K.x.l.G.v z.c.G.,.q.9.1.;.9X.Xs _ &.O.#.+.;.7X>X3.|.i.F.Z.l.y.}.eX<.=.7.=.{ :.R d.u.!.",
"!.h.I S.|.oX}.&./ y w |.eX7XXX_ 5.=... .-.qXyX%.;.D.m.T.iX<X..] <XjXiX=X4X,X1.:.U P L h J.1XU.u.J.*XV.S.wXtX4X,X7X9.9.,.&.uX_.W.",
"!.c.A...<.>XpXdXT.w o a ` eX3XqX9X{.@X@X@XjXaXaXdXpXpX0X>Xq.5.o.<XrX5.=.X.5.6X2X|.n.g t T.jXhXS.J.9.U.r.a.V.( ;XtX2Xo.3.eXaXhX).",
"!.W.D.| &.7X5X8.XXM.c.c 4.5X9.tXG.p.I.U.E 5.4.q.:.@.5.|.@XpX=XX.' 4.aX=Xo.0.J.t.k.Z.E ) 8X9XrX8X8XtX=.+.&.J 0 OX*.L o.0.|.z.Q.^.",
"!.!.P.*.@.:.7.:.G X Y =XqXwX-.J y , > x v , d $ D ] T h.Q.B.S * G * q I.=XrX_.c A.H.pX2.-.>.1.+.[ :.:.1.7XI # # * L +.wXT.b.b.!.",
"W.I.4.,.-...;XjX=XG | rXjXrXx g.y t h..X1X0XsXE < 7 9 u.l.h ^ ^ ] L F F g L.N.x =X=X6.3XeX+XD.o.X.{ =.7.7X6XR y.l L f |._.b.b.!.",
"c.k.M.}.$.o.,XaX=X| U k 9 4 ^.M.! #.2.rX,X,.0.v 1 o i < e.y $ # M ^ U U V.Q.7 v ,.4XtX3X6XT.T.3X5X9.:.' [ =.@.W V.d d t.s.b.b.!.",
"r.b.Y.yX.XoXtXR g S d u.x.x.l.u.c -.,.,X&.] I h.1 s [ p e.> 1 i = S G B.W.G.qXaX7Xq.6X3.#.I.U.6X7X*./ o.rX:X[ $.} Q qXU.j.p.l.b.",
"b.c.m.m.r.i.t.a.u.x.s.k.p k e.e.Z.*X7.3.,X7._ r 0 O S d 8 r.0 # m & e n.G.q.7XeXE W 7XaXjX.X) wX_ M M a s ~ 5X,X@.@.5.S.: p.u.r.",
"c.l.l.j.8 p.!.W.x.OXI.C.[ p q ~ sXrX6X2.1.3XT y M ^ ^ q 5 3 . # n @ w p.t.m.n.B.%.) _ dXaXI a k g.y.2 O Q aXrX8.rXaX8.D.> 6 8 b.",
"j.j.p.u.6 r.).P.N. X1X4.,.Q T U / Q &.=.{.+XU.8 t M m r a.r.1 + # X 1 9 y.r ) 7XrX_ r v 5X}.R @.+.c a.j.H.qXeX7.rXtX}.g.6 8 j.p.",
": 3 6 e.e.8 F.=X! ~ 4XeX7X}.N.p D %.rX/ n m m + o X X + i w 0 # # @ n m i # / :.~ e 1 # y x -.X.-.2X8XqXJ.|.5X=...&.uXY.u.; 5 6 ",
"> c.e.u.u.p.S.0.o._ %.@.' z x.0 2 F.XXX.{.v @.8.$.L f 2 X a b = b m N & 0 c ] ] @.#.Z.S.>.I K o.9XaX3XE s.k.k.t.k.z.Q.Q.l.r.3 6 ",
": j.b.c.b.W.k.v 3.wXaX*X+.4.W T P V.F.o.@.X.6.eXO.L l 7 < X & m & & m j c.A.o.+.O.;X XR 1XsX=Xo.q.eX! 0 b.W.l.p.W.!.!.!.c.p.6 : ",
"8 b.b.c.p.j.c.p.N.}. X+XjX9X>.@. .Z.F.| @.,.,.4XOXf e j.1 & & # + @ N B.z.n.D.1X=X| }.! ,X7X0...;.5XS.l.j.l.W.j.W.W.W.W.c.b.5 e.",
"u.l.b.r.p.b.b.W.p.z.x.|.aXOX{.5.}.m.P.P.Z.yXT.Q.^.W.Q.!.c.1 O @ @ # V V t u.u.F.XXK g t.z.n.H...' &.sXT.b.u.l.j.W.b.W.b.c.c.6 c.",
"u.j.c.e.j.b.b.u.e.p.j.n.i.Y.%XL.v.W.j.t.j.U.T.!.~.!.~.~.~.1 X O X # V n 0 e.: 8 e d w 8 l.!.G.5.$.S.v.c.b.j.c.l.c.c.b.b.c.b.p.~.",
"~.p.j.j.c.l.c.j.u.p.u.r.6 n.a.p.8 p.6 e.p.7 e.b.!.!.!.~.~.w # # # m m r n.~.r.e.p.p.p.r.W.W.Q.G.H.a.p.l.j.j.W.j.j.c.W.W.b.b.5 W.",
"j.W.r.r.p.e.u.r.j.e.l.8 u.b.l.e.8 e.r.e.j.j.u.e.p.!.!./.~.w & # # # X d.~.~.!.u.j.j.p.u.W.W.W.Q.u.j.j.l.c.b.W.e.8 j.W.!.W.W.u.p.",
"3 e.u.r.5 > : 3 u.j.l.l.r.p.6 S.qX1XG.c.c.W.M.oXH.m.!.!.~.w X a N # X w !.!.!.p.p.p.p.l.b.W.!.W.r.8 e.b.~.b.W.p.3 r.b.W.W.c.r.W.",
"6 p.u.: > 8 3 - 6 u.j.j.l.b.W.B.*X1.S.l.W.B._ $.v b.b.W.b.w X b N = X w ~.!.!.r.u.r.l.u.l.W.W.8 r.5 3 c.!.v.v.p.5 5 u.l.b.p.e.j.",
"3 r.r.: e.l.u.r.u.W.W.p.j.u.r.j.i.t.j.l.c.A.] ] z j.j.6 6 < @ N b # + w ~.!.!.b.r.e.l.c.e.j.p.r.l.8 g XXqXT.p.r.3 e.8 r.p.r.b.p.",
"r.W.b.- 8 l.j.j.W.W.W.l.c.u.j.c.p.j.j.c.b.x.x c r.u.r.5 u.0 n ^ & # # 1 !.b.p.e.3 3 r.p.l.c.p.W.!.b.S.1.8.U.r.c.5 u.6 j.r.r.c.u.",
"r.W.e.6 r.e.8 l.W.W.W.l.W.c.b.!.W.c.u.b.W.c.u.t.e.W.p.p.c.w M V = # @ < r.e.8 8 j.e.6 r.l.j.W.!.!.!.W.i.4 7 j.p.6 6 - 6 l.c.p.r.",
"p.u.5 j.l.r.u.l.b.u.p.e.!.b.c.W.W.W.u.c.c.l.p.p.u.8 e.j.l.0 # V n + X < 5 e.c.c.c.c.e.5 3 p.!.!.!.!.!.Q.u.8 3 u.6 p.> e.u.u.3 u.",
"b.c.c.p.p.p.: > j.> r.5 b.b.j.c.c.c.r.j.j.r.e.j.c.l.e.e.l.w X = % X @ 1 p.r.c.b.c.c.c.3 ; p.!.!.!.!.!.!.c.l.j.b.j.j.6 8 6 r.l.b.",
"~.!.!.b.p.c.3 - > e.j.8 5 l.e.W.l.c.j.b.b.j.e.e.r.c.p.e.8 t # = # @ = r e.c.c.c.b.c.p.6 6 r.!.!.!.!.!.b.8 u.e.6 6 c.r.p.W.!.!.!.",
"~.!.~.b.3 r.u.5 p.c.b.r.8 r.p.p.r.e.j.b.j.u.l.c.l.p.W.l.u.r b b @ = m r 6 l.u.u.j.l.j.e.b.e.b.!.!.!.b.j.6 l.8 e.p.u.6 p.~.!.!.~.",
"~.~.~.c.u.l.8 u.c.r.p.l.l.c.c.j.u.e.u.l.e.u.b.!.!.c.j.!.b.1 # m = = m r i.e.e.u.p.p.r.j.W.r.l.b.b.l.6 6 8 u.r.u.r.e.e.!.!.!.~.~.",
"/.!.c.u.8 e.5 8 e.r.c.b.W.b.W.l.p.e.e.r.> 6 W.!.~.W.c.j.!.1 & m # # m i 7 5 r.E.E.j.5 p.c.r.u.l ' ..v a.j.j.l.l.j.r.8 !.!.~.!.~.",
"!.j.> e.8 5 r.3 j.b.b.b.b.b.b.b.e.u.p.l.3 5 p.~.!.!.W.c.!.0 & m = = b + 1 ].CXCXmX'.j.u.p.u.u.c ..=XuXT.j.l.c.c.c.l.5 u.u.u.~.~.",
": 3 3 j.c.c.r.5 b.W.W.b.b.W.b.l.6 r.8 e.5 u.e.c.!.!.!.c.b.1 & N m m = X A cXCXnXMXnX`.l.l.u.W.W.i.t.z.v.l.c.c.c.c.3 8 c.l.p.p.r.",
"r.5 p.b.!.W.r.6 b.b.b.b.b.b.b.r.c.b.l.u.j.W.u.p.c.W.!.j.d.o % = ^ = = # zXCXMXvXvXnX'.W.l.u.!.W.u.l.c.l.l.c.l.c.c.u.c.b.b.b.c.c.",
"b.c.e.r.!.!.c.8 b.W.b.W.W.b.l.u.b.b.U.8X3X7.G.W.p.[.BXmXw.b = w.bXbXbXNXVXmXcXw.kXkXbX[.z.W.W.r.p.c.c.c.c.l.c.e.u.b.W.b.W.b.b.W.",
"W.b.c.u.W.!.W.r.b.W.b.c.l.e.5 > b.b.v.{.3X7.xXlXxXNXMXMXvXzXbXmXbXzXzXbXNXbXlXlXzXzXbXNXcX(.W.r.j.c.c.c.c.c.l.e.c.b.b.W.b.W.b.W.",
"W.c.u.W.!.W.!.r.j.p.p.u.> ; > 6 > r.r.a.v.m.a.n.E.zXzXzXkXR.'.w.Z B B B Z A Z B C C A A M.^.c.5 3 p.r.p.p.r.; 8 c.b.b.b.b.W.W.W.",
"l.p.r.!.!.W.!.; > 6 8 > 6 r.!.b.p.6 - b.r.r.5 e.r.4 z.n.c.c.c.Q.n.Q.Q.W.n.Q.!.p.W.W.n.7 b.b.u.u.e.3 3 3 e.> e.> 6 p.c.b.W.b.b.b."
};
